<svg width="126" height="25" fill="none" xmlns="http://www.w3.org/2000/svg">
    <g clip-path="url(#a)">
        <g clip-path="url(#b)">
            <path fill-rule="evenodd" clip-rule="evenodd"
                  d="M123.063 11.11c.739.756 1.108 1.78 1.108 3.074v6.82h-2.741V14.96c0-.763-.223-1.365-.668-1.808-.447-.442-1.054-.663-1.821-.663-.908.013-1.626.314-2.156.898-.53.586-.794 1.334-.794 2.246v5.372h-2.721V5.85h2.721v6.311c.767-1.43 2.113-2.158 4.037-2.185 1.284 0 2.295.378 3.035 1.133Zm-15.834 1.216c-.908 0-1.643.299-2.208.898-.564.6-.848 1.376-.848 2.329 0 .98.284 1.769.849 2.368.564.6 1.3.898 2.207.898 1.339 0 2.344-.428 3.013-1.286l1.695 1.368a4.92 4.92 0 0 1-1.988 1.634c-.823.382-1.778.572-2.867.572-1.102 0-2.081-.231-2.94-.694a4.95 4.95 0 0 1-1.997-1.951c-.475-.837-.712-1.8-.712-2.89 0-1.102.241-2.075.722-2.92a5 5 0 0 1 2.008-1.96c.858-.463 1.845-.694 2.961-.694 1.018 0 1.929.173 2.731.52.802.347 1.454.841 1.957 1.48l-1.654 1.532c-.753-.803-1.729-1.204-2.929-1.204Zm-7.528-2.247v10.926h-2.72v-1.736a4.062 4.062 0 0 1-1.56 1.38c-.635.32-1.363.478-2.186.478-1.06 0-1.99-.235-2.794-.704a4.86 4.86 0 0 1-1.873-1.981c-.445-.85-.669-1.828-.669-2.931 0-1.088.223-2.052.67-2.89a4.803 4.803 0 0 1 1.873-1.95c.801-.462 1.725-.694 2.772-.694.823 0 1.556.16 2.197.48.639.317 1.18.793 1.57 1.378V10.08h2.72v-.001Zm-3.704 8.016c.572-.538.9-1.25.984-2.134v-.776c-.084-.886-.412-1.597-.983-2.134-.573-.54-1.298-.807-2.178-.807-.934 0-1.694.31-2.28.93-.586.619-.886 1.418-.899 2.399.013.98.313 1.78.899 2.4.586.618 1.346.929 2.28.929.88 0 1.605-.27 2.177-.807Zm-10.83-6.607c.9.994 1.35 2.389 1.35 4.187 0 .354-.008.619-.021.796H78.23c.181.776.554 1.386 1.12 1.828.564.443 1.259.664 2.082.664a4.34 4.34 0 0 0 1.642-.317 4.01 4.01 0 0 0 1.371-.909l1.464 1.491a5.665 5.665 0 0 1-2.04 1.388c-.802.328-1.69.491-2.668.491-1.143 0-2.151-.231-3.023-.694a4.916 4.916 0 0 1-2.02-1.951c-.474-.837-.71-1.8-.71-2.89 0-1.088.24-2.055.722-2.9a5.051 5.051 0 0 1 2.018-1.97c.865-.47 1.848-.705 2.95-.705 1.787 0 3.13.498 4.029 1.491Zm-1.14 3.206c-.029-.803-.3-1.442-.817-1.92-.515-.476-1.2-.714-2.05-.714-.795 0-1.462.235-2 .705-.536.47-.867 1.112-.992 1.93h5.859ZM72.49 10.56c.649-.375 1.406-.568 2.27-.582v2.573c-1.158-.068-2.082.194-2.772.786-.69.592-1.036 1.393-1.036 2.4v5.269h-2.72V10.079h2.72v2.103c.376-.707.89-1.25 1.537-1.623h.001Zm-6.296 9.77c-.892.531-1.827.798-2.803.798-.963 0-1.752-.276-2.365-.828-.614-.552-.92-1.365-.92-2.44V7.526l2.698-.314v3.316h3.201v1.94h-3.2v4.922c0 .504.097.862.292 1.072.196.212.488.317.879.317.418 0 .95-.15 1.59-.45l.628 2.002v-.001ZM55.066 10.08h2.7v6.124c0 3.575-2.558 4.904-5.152 4.904-2.594 0-5.15-1.33-5.15-4.904V10.08h2.7v6.218c0 1.37 1.047 2.481 2.45 2.481 1.404 0 2.451-1.11 2.451-2.481v-6.22h.001ZM41.871 7.485a7.252 7.252 0 0 1 2.814 2.635c.684 1.116 1.025 2.355 1.025 3.717 0 1.361-.34 2.604-1.025 3.726a7.367 7.367 0 0 1-2.814 2.665c-1.192.654-2.515.98-3.965.98-1.452 0-2.772-.326-3.965-.98a7.366 7.366 0 0 1-2.815-2.665c-.684-1.122-1.025-2.365-1.025-3.726 0-1.362.341-2.601 1.024-3.717a7.25 7.25 0 0 1 2.815-2.635c1.193-.64 2.514-.96 3.965-.96s2.773.32 3.966.96ZM35.457 9.62a4.84 4.84 0 0 0-1.82 1.755 4.682 4.682 0 0 0-.67 2.462c0 .898.227 1.723.68 2.47a4.993 4.993 0 0 0 1.822 1.777c.76.436 1.586.654 2.48.654a4.805 4.805 0 0 0 2.448-.654 4.864 4.864 0 0 0 1.789-1.776c.44-.753.668-1.605.66-2.471a4.81 4.81 0 0 0-2.449-4.217 4.867 4.867 0 0 0-2.448-.644 5.021 5.021 0 0 0-2.49.644h-.002Z"
                  fill="#fff"></path>
            <path d="M23.912 4.517C21.203 1.873 15.384.72 11.532.72c-3.927 0-6.886.97-8.603 2.646C1.075 5.174.35 7.35.35 9.838c0 3.943 2.044 8.171 4.899 10.957.745.727 3.318 2.961 6.688 2.961 3.448 0 6.01-2.055 7.622-3.627 3.116-3.043 5.939-8.288 5.939-11.706 0-1.923-.898-3.236-1.585-3.906Z"
                  fill="#5951FF"></path>
            <path d="M18.091 10.8c0 .86-.35 2.424-1.65 3.693-1.3 1.27-2.558 1.746-3.776 1.746s-2.428-.556-3.197-1.307c-.833-.813-1.598-2.165-1.598-3.564 0-1.4.568-2.386 1.225-3.027.837-.818 2.095-1.395 3.966-1.395 1.478 0 2.836.338 4.063 1.535.8.78.967 1.695.967 2.319Z"
                  fill="#120044"></path>
        </g>
    </g>
    <defs>
        <clipPath id="a">
            <path fill="#fff" transform="translate(0 .212)" d="M0 0h126v24H0z"></path>
        </clipPath>
        <clipPath id="b">
            <path fill="#fff" transform="translate(-1.575 .4)" d="M0 0h126v23.678H0z"></path>
        </clipPath>
    </defs>
</svg>